# xmcd
#
# Track frame offsets:
#	150
#	28199
#	48101
#	67986
#	87110
#	111835
#	136487
#	158487
#	177510
#	199021
#	221728
#
# Disc length: 3287 seconds
#
# Revision: 1
# Processed by: cddbd v1.5.2PL0 Copyright (c) Steve Scherf et al.
# Submitted via: EZCDAudioConverter 8.0.2.1
#
DISCID=940cd50b
DTITLE=Various Artist - Top Hits 23. Đắng Cay
DYEAR=2005
DGENRE=Electronica
TTITLE0=Lương Tùng Quang, Hồ Lệ Thu - Ngày gió và cánh diều
TTITLE1=Như Loan - Yêu nhau dưới nắng mai
TTITLE2=Tâm Đoan - Nếu biết trước
TTITLE3=Hồ Lệ Thu - Giọt lệ đã phai
TTITLE4=Khánh Hà, Lâm Nhật Tiến - Sorry Seem To Be The Hardest Word
TTITLE5=Bằng Kiều - Mưa trên ngày tháng đó
TTITLE6=Bảo Hân - Theo em xuống phố
TTITLE7=Lưu Bích - Đắng Cay
TTITLE8=Minh Tuyết - Đêm chia tay
TTITLE9=Hồ Lệ Thu - Giọt lệ đã phai
TTITLE10=Hợp Ca - Ghé bến Sài Gòn
EXTD=
EXTT0=
EXTT1=
EXTT2=
EXTT3=
EXTT4=
EXTT5=
EXTT6=
EXTT7=
EXTT8=
EXTT9=
EXTT10=
PLAYORDER=
